<svg viewBox="0 0 231 231" fill="none" xmlns="http://www.w3.org/2000/svg"><g clip-path="url(#a)"><path d="M227.729 115.268c0-62.091-50.354-112.42-112.461-112.42-62.108 0-112.464 50.329-112.464 112.42s50.351 112.42 112.464 112.42c62.112 0 112.461-50.329 112.461-112.42Z" fill="#fff"/><path d="M158.501 100.064h-.038c-.176 0-.724.176-2.024 1.821-1.631 1.975-2.687 4.447-3.095 5.962v.008h-.003c-.124.416-.1.716-.022.824a.128.128 0 0 0 .111.049c.049-.003.324-.054 1.321-.981.535-.521 1.47-1.702 2.712-3.409.314-.465.816-1.467 1.11-2.069.1-.2.173-.346.219-.43.125-.329.219-.832.16-1.215-.089-.56-.351-.56-.446-.56h-.005Zm-23.586 0h-.038c-.176 0-.729.176-2.023 1.821-1.637 1.975-2.694 4.447-3.096 5.962v.008h-.003c-.127.416-.097.716-.013.824.016.024.038.049.102.049.049-.003.325-.054 1.319-.981.535-.521 1.469-1.702 2.709-3.409.316-.465.811-1.467 1.113-2.069.103-.2.176-.346.216-.43.127-.329.224-.832.162-1.215-.089-.56-.346-.56-.448-.56Zm-93.265 5.152a.793.793 0 0 0-.59-.038c-.296.089-.531.316-.753.532-.794.781-1.58 1.567-2.404 2.313-.527.478-1.291 1.221-2.07 1.221a.291.291 0 0 1-.22-.103c-.117-.13-.382-.578-.257-1.931.172-2.51.953-5.96 2.036-9.018.9-2.55 1.897-4.884 2.491-6.278.232-.545.416-.975.516-1.248.29-.761.262-1.258-.102-1.826-.308-.478-.649-.721-1.01-.721-.514 0-.76.356-.968.886-.265.594-.854 2.137-1.594 4.087a579.028 579.028 0 0 1-2.074 5.39l-.044-.017a2.703 2.703 0 0 0-1.348-.332h-.035c-1.693 0-3.776 1.197-5.575 3.193-2.226 2.537-3.718 6.351-3.718 8.326 0 2.25 1.26 2.425 1.651 2.425.624 0 2.175-.707 3.69-1.896.751-.597 2.502-2.396 3.871-4.128a31.05 31.05 0 0 0-.246 2.361c-.091 1.254.187 2.361.735 2.956.314.337.719.516 1.173.516 1.615 0 3.111-1.23 4.222-2.264.737-.684 3.455-2.988 2.85-4.176a.508.508 0 0 0-.233-.227l.006-.003Zm-8.153-3.855v.014l-.008.01c-.319 1.254-2.296 4.031-3.852 5.681-1.283 1.367-2.34 1.989-2.774 1.989-.235 0-.257-.33-.257-.47 0-.716.497-2.253 1.893-4.423 1.44-2.196 3.08-3.733 3.988-3.733h.035c.621 0 .886.281.953.367l.011.014.014.013c.04.041.138.141-.003.535v.003ZM57.35 161.696h-3.09v9.369h1.845v-3.166h1.245c2.186 0 3.544-1.186 3.544-3.102 0-1.915-1.358-3.103-3.544-3.103v.002Zm-.051 4.541h-1.194v-2.879h1.194c1.188 0 1.7.429 1.7 1.439 0 1.011-.512 1.44-1.7 1.44Zm11.197-4.727-4.155 9.555h1.897l.707-1.67h3.407l.708 1.67h1.964l-4.171-9.555h-.357Zm-.853 6.229 1.018-2.396.997 2.396h-2.016Zm17.045-2.993c0-1.883-1.353-3.052-3.541-3.052h-3.115v9.368h1.842v-3.307h1.33l2.028 3.307h2.048l-2.256-3.663c1.078-.476 1.664-1.413 1.664-2.653Zm-3.595 1.386h-1.219v-2.772h1.219c1.207 0 1.699.397 1.699 1.389 0 .991-.508 1.386-1.7 1.386v-.003Zm9.22 4.935h1.844v-9.368h-1.845v9.368Zm11.286-5.519-.627-.275c-1.037-.457-1.318-.659-1.318-1.21 0-.514.4-.832 1.034-.832.635 0 1.065.235 1.381.767l.113.186 1.429-.924-.102-.167c-.624-1.032-1.529-1.513-2.848-1.513-1.653 0-2.812 1.04-2.812 2.539 0 1.5.954 2.202 2.377 2.821l.627.278c.83.365 1.335.64 1.335 1.326 0 .595-.535.962-1.394.962-.86 0-1.491-.378-1.872-1.099l-.095-.176-1.572.773.097.186c.69 1.286 1.915 1.996 3.455 1.996 1.978 0 3.21-1.026 3.21-2.685 0-1.742-1.195-2.415-2.418-2.955v.002Zm13.223.414c-.821 0-1.488.662-1.488 1.469 0 .808.667 1.47 1.488 1.47s1.488-.657 1.488-1.47-.664-1.469-1.488-1.469Zm9.784-2.726h1.505v7.931h1.745v-9.482h-3.25v1.551Zm17.84 2.642a2.244 2.244 0 0 0 .881-1.794c0-1.442-1.256-2.536-2.92-2.536s-2.902 1.094-2.902 2.536c0 .711.314 1.351.873 1.791-.913.519-1.451 1.405-1.451 2.426 0 1.713 1.494 3.004 3.48 3.004 1.985 0 3.498-1.264 3.498-3.004 0-1.024-.538-1.907-1.459-2.423Zm-2.039-2.799c.694 0 1.175.43 1.175 1.043s-.481 1.073-1.175 1.073c-.695 0-1.156-.443-1.156-1.073 0-.629.478-1.043 1.156-1.043Zm0 6.676c-1.011 0-1.716-.633-1.716-1.54 0-.908.678-1.527 1.716-1.527 1.037 0 1.739.584 1.739 1.527 0 .942-.715 1.54-1.739 1.54Zm15.492-5.084c-.097 0-.189.01-.284.016l2.208-3.004h-1.981l-2.633 3.585c-.757 1.026-1.095 1.866-1.095 2.717 0 1.921 1.492 3.317 3.553 3.317s3.549-1.434 3.549-3.333c0-1.899-1.429-3.298-3.322-3.298h.005Zm-.232 5.065c-1.089 0-1.788-.695-1.788-1.767 0-1.073.742-1.797 1.804-1.797s1.769.708 1.769 1.797-.705 1.767-1.788 1.767h.003Zm15.87-8.191c-2.423 0-4.114 2.004-4.114 4.871 0 2.866 1.691 4.886 4.114 4.886 2.424 0 4.128-2.009 4.128-4.886 0-2.877-1.699-4.871-4.128-4.871Zm0 8.172c-1.418 0-2.334-1.297-2.334-3.304 0-2.007.913-3.285 2.334-3.285s2.348 1.262 2.348 3.285-.921 3.304-2.348 3.304Z" fill="#005629"/><path d="M115.268 5.287c-60.69 0-110.065 49.338-110.065 109.981 0 60.643 49.376 109.978 110.065 109.978S225.33 175.908 225.33 115.268c0-60.64-49.373-109.981-110.062-109.981Zm0 224.841C51.931 230.128.405 178.602.405 115.268.405 51.934 51.931.405 115.268.405c63.336 0 114.86 51.526 114.86 114.863 0 63.336-51.527 114.862-114.86 114.862" fill="#005629"/></g><defs><clipPath id="a"><path fill="#fff" transform="translate(.405 .405)" d="M0 0h229.722v229.722H0z"/></clipPath></defs></svg>